<?xml version="1.0" encoding="UTF-8" standalone="no"?>
<!DOCTYPE svg PUBLIC "-//W3C//DTD SVG 1.1//EN" "http://www.w3.org/Graphics/SVG/1.1/DTD/svg11.dtd">
<svg width="100%" height="100%" viewBox="0 0 1933 1933" version="1.1" xmlns="http://www.w3.org/2000/svg" xmlns:xlink="http://www.w3.org/1999/xlink" xml:space="preserve" xmlns:serif="http://www.serif.com/" style="fill-rule:evenodd;clip-rule:evenodd;stroke-linecap:round;stroke-linejoin:round;stroke-miterlimit:10;">
    <g transform="matrix(1.93703,0,0,1.93703,-38.3356,-38.3747)">
        <g id="Layer-1">
            <path d="M501.031,50C251.936,50 50,251.936 50,501.031L50,535.281C50,742.216 189.418,916.459 379.406,969.562C378.008,958.553 377.125,947.29 377.125,935.719C377.125,829.336 438.799,743.094 514.875,743.094C590.951,743.094 652.625,829.336 652.625,935.719C652.625,947.962 651.718,959.891 650.156,971.5C843.604,920.693 986.312,744.673 986.312,535.281L986.312,501.031C986.313,251.936 784.377,50 535.281,50L501.031,50Z" style="fill:none;stroke:#8A39E1;stroke-width:60px;"/>
        </g>
    </g>
    <g transform="matrix(1.93703,0,0,1.93703,-38.3356,-38.3747)">
        <g id="Layer-1-copy">
            <path d="M511.875,517.531C411.075,517.619 310.656,588.094 310.656,588.094L310.875,588.094L310.531,588.312L258.469,881.719L310.531,916.906L310.875,913.531L310.875,948.469L377.938,955.031C377.485,948.675 377.219,942.241 377.219,935.719C377.219,829.336 438.893,743.094 514.969,743.094C591.045,743.094 652.719,829.336 652.719,935.719C652.719,942.156 652.472,948.506 652.031,954.781L713.312,948.469L713.312,921.656L714,923.344L771.469,884.344L713.781,588.188L712.688,587.75L713.875,587.75C713.875,587.75 612.675,517.444 511.875,517.531ZM337.469,585.406L287.156,896.188L273.375,886.656L322.875,595.156L337.469,585.406Z" style="fill:#8A39E1;stroke:#8A39E1;stroke-width:1px;"/>
        </g>
    </g>
    <g transform="matrix(1.93703,0,0,1.93703,-38.3356,-38.3747)">
        <g id="Layer-2">
            <path d="M440.719,258.719C432.217,258.719 425.312,265.623 425.313,274.125L425.313,420.312C425.313,421.88 424.145,423.608 422.688,424.188L398.938,433.656C397.319,434.3 396,433.398 396,431.656L396,336.156C396,330.102 391.508,327.097 385.938,329.469L271.219,378.312C264.18,381.31 258.469,389.944 258.469,397.594L258.469,566.938C258.469,578.178 268.715,578.991 276.031,577.062C283.348,575.134 412.44,493.314 512,493.28C613.144,493.245 755.438,578.313 755.438,578.312C764.6,583.333 771.944,579.073 771.938,568.594L771.844,397.812C771.839,389.701 765.718,380.671 758.188,377.656L635.469,328.531C630.033,326.355 625.587,329.333 625.531,335.188L624.625,430.594C624.609,432.334 623.305,433.237 621.688,432.594L597.969,423.125C596.513,422.546 595.312,420.817 595.313,419.25L595.313,274.781C595.313,265.915 588.148,258.719 579.281,258.719L440.719,258.719ZM282.75,384.094L282.281,560.781L269.344,567.531L269.344,391.656L282.75,384.094Z" style="fill:#8A39E1;stroke:#8A39E1;stroke-width:1px;"/>
        </g>
    </g>
</svg>
